# xmcd
#
# Track frame offsets:
#	150
#	14175
#	31936
#	49791
#	67802
#	87677
#	109195
#	128489
#	148663
#
# Disc length: 2230 seconds
#
# Revision: 0
# Processed by: cddbd v1.5.2PL0 Copyright (c) Steve Scherf et al.
# Submitted via: audiograbber 1.83.01
#
DISCID=7b08b409
DTITLE=איתי פרל - מסע בלוז
DYEAR=2012
DGENRE=
TTITLE0=אין לאן ללכת בלוז
TTITLE1=לא בידיים שלך
TTITLE2=אזרח סוג ז'
TTITLE3=דרומה
TTITLE4=בלוז לחילוני החרד
TTITLE5=זה לא נורא זה רק הסוף שלך
TTITLE6=נמשך אלייך
TTITLE7=ת'מבין מה אני אומר
TTITLE8=חוץ מלתפוס אותך עשיתי הכל כמו שצריך
EXTD=
EXTT0=
EXTT1=
EXTT2=
EXTT3=
EXTT4=
EXTT5=
EXTT6=
EXTT7=
EXTT8=
PLAYORDER=
